# Blender v2.62 (sub 0) OBJ File: 'locomotive_Cherepanovs.blend'
# www.blender.org
o Cube_Cube.020
v -0.957191 0.638531 -0.594299
v -1.080810 0.638531 -0.594299
v -1.204430 0.638531 -0.594299
v -1.328050 0.638531 -0.594299
v -0.957191 0.638531 -0.651758
v -1.080810 0.638531 -0.651758
v -1.204430 0.638531 -0.651758
v -1.328050 0.638531 -0.651758
v -0.884473 0.638531 -0.651758
v -1.008093 0.638531 -0.651758
v -1.131713 0.638531 -0.651758
v -1.255332 0.638531 -0.651758
v -0.884473 0.638531 -0.594299
v -1.008093 0.638531 -0.594299
v -1.131713 0.638531 -0.594299
v -1.255332 0.638531 -0.594299
v -0.957191 0.186979 -0.594299
v -1.080810 0.186979 -0.594299
v -1.204430 0.186979 -0.594299
v -1.328050 0.186979 -0.594299
v -0.957191 0.186979 -0.651758
v -1.080810 0.186979 -0.651758
v -1.204430 0.186979 -0.651758
v -1.328050 0.186979 -0.651758
v -0.884473 0.186979 -0.651758
v -1.008093 0.186979 -0.651758
v -1.131713 0.186979 -0.651758
v -1.255332 0.186979 -0.651758
v -0.884473 0.186979 -0.594299
v -1.008093 0.186979 -0.594299
v -1.131713 0.186979 -0.594299
v -1.255332 0.186979 -0.594299
v -1.358366 0.723934 -0.573339
v -1.358366 0.723934 -0.672419
v -0.842200 0.723934 -0.672419
v -0.842200 0.723934 -0.573339
v -1.358366 0.639715 -0.573339
v -1.358366 0.639715 -0.672419
v -0.842200 0.639715 -0.672419
v -0.842200 0.639715 -0.573339
v -0.957191 0.638531 0.650975
v -1.080810 0.638531 0.650975
v -1.204430 0.638531 0.650975
v -1.328050 0.638531 0.650975
v -0.957191 0.638531 0.593516
v -1.080810 0.638531 0.593516
v -1.204430 0.638531 0.593516
v -1.328050 0.638531 0.593516
v -0.884473 0.638531 0.593516
v -1.008093 0.638531 0.593516
v -1.131713 0.638531 0.593516
v -1.255332 0.638531 0.593516
v -0.884473 0.638531 0.650975
v -1.008093 0.638531 0.650975
v -1.131713 0.638531 0.650975
v -1.255332 0.638531 0.650975
v -0.957191 0.186979 0.650975
v -1.080810 0.186979 0.650975
v -1.204430 0.186979 0.650975
v -1.328050 0.186979 0.650975
v -0.957191 0.186979 0.593516
v -1.080810 0.186979 0.593516
v -1.204430 0.186979 0.593516
v -1.328050 0.186979 0.593516
v -0.884473 0.186979 0.593516
v -1.008093 0.186979 0.593516
v -1.131713 0.186979 0.593516
v -1.255332 0.186979 0.593516
v -0.884473 0.186979 0.650975
v -1.008093 0.186979 0.650975
v -1.131713 0.186979 0.650975
v -1.255332 0.186979 0.650975
v -1.358366 0.723934 0.671935
v -1.358366 0.723934 0.572855
v -0.842200 0.723934 0.572855
v -0.842200 0.723934 0.671935
v -1.358366 0.639715 0.671935
v -1.358366 0.639715 0.572855
v -0.842200 0.639715 0.572855
v -0.842200 0.639715 0.671935
v -0.291343 -0.081056 -0.540660
v -0.291343 -0.081056 0.550481
v -0.653862 -0.081056 0.550481
v -0.653862 -0.081056 -0.540661
v -0.222449 0.087469 -0.540660
v -0.222449 0.087469 0.550482
v -0.722756 0.087469 0.550481
v -0.722756 0.087469 -0.540660
v 0.945876 -0.081056 -0.540660
v 0.945876 -0.081056 0.550481
v 0.583357 -0.081056 0.550481
v 0.583357 -0.081056 -0.540661
v 1.014770 0.087469 -0.540660
v 1.014770 0.087469 0.550482
v 0.514463 0.087469 0.550481
v 0.514463 0.087469 -0.540660
v 0.894654 0.996773 -0.189640
v 1.042774 0.996773 -0.095757
v 1.042774 0.996773 0.092010
v 0.894654 0.996773 0.185893
v 0.746534 0.996773 0.092009
v 0.746534 0.996773 -0.095757
v 0.894654 2.610287 -0.189640
v 0.746534 2.610287 -0.095757
v 0.746534 2.610287 0.092009
v 0.894654 2.610287 0.185893
v 1.042774 2.610287 0.092010
v 1.042774 2.610287 -0.095757
v 1.087554 2.746910 -0.124140
v 0.894654 2.746910 -0.246407
v 1.087554 2.746910 0.120393
v 0.894654 2.746910 0.242659
v 0.701753 2.746910 0.120393
v 0.701753 2.746910 -0.124140
v 0.894654 2.746910 -0.001874
v 1.253453 0.093375 -0.739279
v 1.253453 0.093375 0.739279
v -1.544252 0.093375 0.739279
v -1.544251 0.093375 -0.739279
v 1.253454 0.188666 -0.739279
v 1.253452 0.188666 0.739279
v -1.544252 0.188666 0.739279
v -1.544251 0.188666 -0.739279
v 1.103953 0.188666 -0.517495
v 0.504631 0.188666 -0.517495
v 0.504630 0.188666 0.517495
v 1.103952 0.188666 0.517496
v 1.103953 0.674704 -0.517495
v 1.103952 0.674704 0.517496
v 0.504630 0.674704 0.517495
v 0.504631 0.674704 -0.517495
v 0.504631 0.865139 -0.427036
v 1.103953 0.865139 -0.427036
v 0.504630 0.865139 0.427036
v 1.103952 0.865139 0.427036
v 1.103953 1.010031 -0.226055
v 1.103952 1.010031 0.226055
v 0.504630 1.010031 0.226055
v 0.504631 1.010031 -0.226055
v 0.100508 0.925719 -0.027102
v 0.100508 0.925719 0.031655
v 0.150021 0.925719 0.061033
v 0.199533 0.925719 0.031655
v 0.199533 0.925719 -0.027102
v 0.150021 0.925719 -0.056480
v 0.199533 1.410382 -0.027102
v 0.150021 1.410382 -0.056480
v 0.199533 1.410382 0.031655
v 0.150021 1.410382 0.061033
v 0.100508 1.410382 0.031655
v 0.100508 1.410382 -0.027102
v 0.150021 1.593476 -0.076528
v 0.083614 1.593476 -0.037126
v 0.083614 1.593476 0.041678
v 0.150021 1.593476 0.081080
v 0.216427 1.593476 0.041678
v 0.216427 1.593476 -0.037126
v 0.150021 1.593476 0.002276
v 0.504631 0.798979 -0.376166
v 0.504631 0.937363 -0.199127
v 0.504630 0.937363 0.199127
v 0.504630 0.798979 0.376166
v 0.504630 0.678344 0.455850
v 0.504631 0.678344 -0.455850
v 0.504631 0.198149 -0.455850
v 0.504630 0.198149 0.455850
v -0.368017 0.198149 -0.455850
v -0.368017 0.198149 0.455849
v -0.368017 0.678344 0.455849
v -0.368017 0.678344 -0.455850
v -0.368017 0.798979 -0.376167
v -0.368017 0.798979 0.376166
v -0.368017 0.937363 0.199126
v -0.368017 0.937363 -0.199127
v -0.368017 0.838915 -0.437202
v -0.368017 0.999753 -0.231437
v -0.368017 0.999753 0.231436
v -0.368017 0.838915 0.437201
v -0.368017 0.682422 0.529814
v -0.368017 0.682422 -0.529815
v -0.368017 0.124313 -0.529815
v -0.368017 0.124313 0.529814
v -0.907386 0.124313 -0.529815
v -0.907387 0.124313 0.529814
v -0.907387 0.682422 0.529814
v -0.907386 0.682422 -0.529815
v -0.907386 0.838915 -0.437203
v -0.907387 0.838915 0.437201
v -0.907387 0.999753 0.231436
v -0.907386 0.999753 -0.231437
vt 0.507605 0.322151
vt 0.552875 0.322151
vt 0.552875 0.054487
vt 0.507605 0.054487
vt 0.507001 0.325810
vt 0.552271 0.325810
vt 0.552271 0.058146
vt 0.507001 0.058146
vt 0.506639 0.323356
vt 0.551909 0.323356
vt 0.551909 0.055692
vt 0.506639 0.055692
vt 0.505895 0.325810
vt 0.551165 0.325810
vt 0.551165 0.058146
vt 0.505895 0.058146
vt 0.508349 0.321129
vt 0.553619 0.321129
vt 0.553619 0.053465
vt 0.508349 0.053465
vt 0.508228 0.318675
vt 0.553498 0.318675
vt 0.553498 0.051011
vt 0.508228 0.051011
vt 0.505974 0.318471
vt 0.551244 0.318471
vt 0.551244 0.050807
vt 0.505974 0.050807
vt 0.508972 0.318449
vt 0.554242 0.318449
vt 0.554242 0.050785
vt 0.508972 0.050785
vt 0.507080 0.319698
vt 0.552350 0.319698
vt 0.552350 0.052034
vt 0.507080 0.052034
vt 0.509413 0.319698
vt 0.554683 0.319698
vt 0.554683 0.052034
vt 0.509413 0.052034
vt 0.507745 0.323582
vt 0.553015 0.323582
vt 0.553015 0.055918
vt 0.507745 0.055918
vt 0.507987 0.323356
vt 0.553257 0.323356
vt 0.553257 0.055692
vt 0.507987 0.055692
vt 0.508590 0.322151
vt 0.553860 0.322151
vt 0.553860 0.054487
vt 0.508590 0.054487
vt 0.553377 0.055692
vt 0.508107 0.055692
vt 0.508107 0.323356
vt 0.553377 0.323356
vt 0.552754 0.053260
vt 0.507484 0.053260
vt 0.507484 0.320925
vt 0.552754 0.320925
vt 0.551286 0.055714
vt 0.506016 0.055714
vt 0.506016 0.323378
vt 0.551286 0.323378
vt 0.612976 0.289379
vt 0.612976 0.088275
vt 0.554804 0.088275
vt 0.554804 0.289379
vt 0.612399 0.087361
vt 0.554226 0.087361
vt 0.554226 0.326827
vt 0.612399 0.326827
vt 0.568753 0.239395
vt 0.568753 0.297568
vt 0.605956 0.297568
vt 0.605956 0.239395
vt 0.561724 0.091763
vt 0.561724 0.331228
vt 0.598927 0.331228
vt 0.598927 0.091763
vt 0.554804 0.326581
vt 0.612976 0.326581
vt 0.601254 0.327741
vt 0.601254 0.088275
vt 0.564052 0.088275
vt 0.564052 0.327741
vt 0.507605 0.325146
vt 0.552875 0.325146
vt 0.552875 0.057482
vt 0.507605 0.057482
vt 0.507001 0.328805
vt 0.552271 0.328805
vt 0.552271 0.061141
vt 0.507001 0.061141
vt 0.506639 0.326351
vt 0.551909 0.326351
vt 0.551909 0.058687
vt 0.506639 0.058687
vt 0.505895 0.328805
vt 0.551165 0.328805
vt 0.551165 0.061141
vt 0.505895 0.061141
vt 0.508349 0.324124
vt 0.553619 0.324124
vt 0.553619 0.056460
vt 0.508349 0.056460
vt 0.508228 0.321670
vt 0.553498 0.321670
vt 0.553498 0.054006
vt 0.508228 0.054006
vt 0.505974 0.321466
vt 0.551244 0.321466
vt 0.551244 0.053802
vt 0.505974 0.053802
vt 0.508972 0.321444
vt 0.554242 0.321444
vt 0.554242 0.053780
vt 0.508972 0.053780
vt 0.507080 0.322693
vt 0.552350 0.322693
vt 0.552350 0.055029
vt 0.507080 0.055029
vt 0.509413 0.322693
vt 0.554683 0.322693
vt 0.554683 0.055029
vt 0.509413 0.055029
vt 0.507745 0.326577
vt 0.553015 0.326577
vt 0.553015 0.058913
vt 0.507745 0.058913
vt 0.507987 0.326351
vt 0.553257 0.326351
vt 0.553257 0.058687
vt 0.507987 0.058687
vt 0.553860 0.057482
vt 0.508590 0.057482
vt 0.508590 0.325146
vt 0.553860 0.325146
vt 0.553377 0.058687
vt 0.508107 0.058687
vt 0.508107 0.326351
vt 0.553377 0.326351
vt 0.552754 0.056255
vt 0.507484 0.056255
vt 0.507484 0.323920
vt 0.552754 0.323920
vt 0.551286 0.058709
vt 0.506016 0.058709
vt 0.506016 0.326373
vt 0.551286 0.326373
vt 0.612813 0.287536
vt 0.613983 0.087857
vt 0.555810 0.087857
vt 0.554640 0.287536
vt 0.613406 0.086943
vt 0.555233 0.086943
vt 0.555233 0.326408
vt 0.613406 0.326408
vt 0.560491 0.224687
vt 0.560491 0.282859
vt 0.597693 0.282859
vt 0.597693 0.224687
vt 0.561615 0.085625
vt 0.561615 0.325091
vt 0.598817 0.325090
vt 0.598817 0.085625
vt 0.554640 0.324738
vt 0.612813 0.324738
vt 0.600308 0.322859
vt 0.600308 0.083393
vt 0.563106 0.083393
vt 0.563106 0.322859
vt 0.689280 0.090472
vt 0.636309 0.090472
vt 0.636311 0.083499
vt 0.689282 0.083499
vt 0.688698 0.050476
vt 0.688698 0.112049
vt 0.635722 0.112049
vt 0.635722 0.050476
vt 0.670819 0.049258
vt 0.670986 0.110656
vt 0.661417 0.110656
vt 0.662735 0.049272
vt 0.699208 0.105850
vt 0.637642 0.105850
vt 0.637642 0.052881
vt 0.699208 0.052881
vt 0.653105 0.098735
vt 0.654423 0.037351
vt 0.662507 0.037338
vt 0.662674 0.098735
vt 0.694044 0.041177
vt 0.641073 0.041177
vt 0.641075 0.034204
vt 0.694046 0.034204
vt 0.699162 0.058076
vt 0.699858 0.119646
vt 0.646885 0.120245
vt 0.646189 0.058676
vt 0.650939 0.018959
vt 0.652327 0.141659
vt 0.633203 0.141824
vt 0.634783 0.019125
vt 0.700582 0.061259
vt 0.699789 0.122828
vt 0.646817 0.122146
vt 0.647610 0.060577
vt 0.669993 0.122651
vt 0.671311 0.061268
vt 0.679395 0.061254
vt 0.679562 0.122651
vt 0.903740 0.049847
vt 0.931435 0.048038
vt 0.931434 0.260212
vt 0.903739 0.262021
vt 0.959131 0.046236
vt 0.959130 0.258410
vt 0.986826 0.044426
vt 0.986825 0.256600
vt 0.848763 0.048288
vt 0.848761 0.260462
vt 0.821480 0.257102
vt 0.821482 0.044928
vt 0.876459 0.046487
vt 0.876457 0.258661
vt 0.955333 0.176165
vt 0.944324 0.237040
vt 0.982830 0.233929
vt 0.939218 0.187118
vt 0.931496 0.206587
vt 0.982831 0.181654
vt 0.949852 0.163321
vt 0.938843 0.224196
vt 0.954958 0.213243
vt 0.911346 0.166432
vt 0.962680 0.193774
vt 0.911345 0.218708
vt -0.646102 0.274766
vt -0.650376 0.278465
vt -0.654648 0.274763
vt -0.658922 0.278462
vt -0.663193 0.274760
vt -0.658919 0.271062
vt -0.650374 0.271065
vt 0.572682 0.584365
vt 0.500896 0.584365
vt 0.500896 0.534447
vt 0.572682 0.534447
vt 0.481395 0.479447
vt 0.481395 0.551233
vt 0.409609 0.551233
vt 0.409609 0.479447
vt 0.461650 0.478249
vt 0.461650 0.550035
vt 0.411732 0.550035
vt 0.411732 0.478249
vt 0.409636 0.549827
vt 0.409636 0.478041
vt 0.481422 0.478041
vt 0.481422 0.549827
vt 0.412219 0.548850
vt 0.412219 0.477064
vt 0.462136 0.477064
vt 0.462136 0.548850
vt 0.708600 0.768396
vt 0.995949 0.768396
vt 0.995950 0.903455
vt 0.708600 0.903455
vt 0.491513 0.466179
vt 0.317279 0.466771
vt 0.317290 0.399490
vt 0.491523 0.399954
vt 0.315571 0.004893
vt 0.495034 0.004302
vt 0.495067 0.071352
vt 0.315568 0.071944
vt 0.495354 0.134626
vt 0.315873 0.135218
vt 0.317287 0.326587
vt 0.494014 0.327286
vt 0.970836 0.956372
vt 0.733715 0.956372
vt 0.915037 0.996635
vt 0.789514 0.996635
vt 0.317985 0.257253
vt 0.494710 0.256662
vt 0.494661 0.199805
vt 0.317941 0.200396
vt 0.912538 0.273768
vt 0.931251 0.272700
vt 0.931168 0.419947
vt 0.911765 0.420132
vt 0.892458 0.419290
vt 0.893258 0.272553
vt 0.872882 0.419374
vt 0.873609 0.271274
vt 0.969185 0.272567
vt 0.988835 0.271276
vt 0.989656 0.419384
vt 0.970053 0.419581
vt 0.950608 0.418750
vt 0.950212 0.271543
vt 0.952097 0.509789
vt 0.933397 0.511105
vt 0.971521 0.510544
vt 0.991206 0.511497
vt 0.895263 0.509762
vt 0.875641 0.511264
vt 0.914666 0.510335
vt 0.958842 0.382905
vt 0.980949 0.420893
vt 0.936737 0.420899
vt 0.914632 0.382904
vt 0.892525 0.420893
vt 0.914630 0.458892
vt 0.958843 0.458890
vt 0.106378 0.977292
vt 0.062452 0.889893
vt 0.084154 0.846274
vt 0.117273 0.933772
vt 0.234929 0.976787
vt 0.219613 0.932685
vt 0.269489 0.889121
vt 0.244073 0.847136
vt 0.268731 0.779306
vt 0.234436 0.785225
vt 0.052010 0.779363
vt 0.086973 0.784174
vt 0.021825 0.651047
vt 0.056868 0.659449
vt 0.237345 0.649635
vt 0.206925 0.658593
vt 0.004848 0.997590
vt 0.004848 0.871381
vt 0.308490 0.872321
vt 0.308492 0.998530
vt 0.006299 0.145304
vt 0.006295 0.006659
vt 0.307916 0.006416
vt 0.307927 0.145061
vt 0.005579 0.299916
vt 0.308183 0.299673
vt 0.005569 0.726750
vt 0.308242 0.727690
vt 0.006044 0.590750
vt 0.308697 0.593570
vt 0.006065 0.454506
vt 0.308688 0.453779
vt 0.252306 0.486687
vt 0.257249 0.408961
vt 0.286843 0.430634
vt 0.278200 0.521638
vt 0.149449 0.489798
vt 0.144305 0.524560
vt 0.100665 0.414013
vt 0.083593 0.436505
vt 0.093816 0.356212
vt 0.062731 0.359274
vt 0.232991 0.351846
vt 0.265064 0.354274
vt 0.234280 0.239177
vt 0.251742 0.204016
vt 0.081416 0.238697
vt 0.058280 0.201772
vt 0.559294 0.647441
vt 0.507848 0.647441
vt 0.507848 0.637094
vt 0.559294 0.637094
vt 0.315652 0.987607
vt 0.316544 0.906045
vt 0.491979 0.906044
vt 0.492061 0.987605
vt 0.316296 0.554629
vt 0.316114 0.475153
vt 0.491576 0.475153
vt 0.491758 0.554629
vt 0.316304 0.627908
vt 0.491761 0.627908
vt 0.316448 0.836510
vt 0.491885 0.836509
vt 0.316357 0.766757
vt 0.491798 0.766756
vt 0.316331 0.701093
vt 0.491781 0.701092
vt 0.706410 0.527112
vt 0.995733 0.527112
vt 0.995733 0.678014
vt 0.706410 0.678014
vt 0.970446 0.720327
vt 0.731696 0.720327
vt 0.914262 0.763815
vt 0.787877 0.763815
vt 0.695696 0.357698
vt 0.695696 0.982048
vt 0.501000 0.982048
vt 0.501000 0.357698
vn -1.000000 0.000000 -0.000001
vn -1.000000 0.000000 0.000000
vn 0.000000 0.000000 -1.000000
vn 1.000000 -0.000000 0.000000
vn 1.000000 0.000000 0.000002
vn 0.000000 -0.000000 1.000000
vn 0.000000 1.000000 0.000000
vn -0.000000 -1.000000 0.000000
vn -1.000000 -0.000001 -0.000001
vn 1.000000 0.000000 -0.000001
vn 0.925639 -0.378407 0.000000
vn -0.000001 -0.000000 1.000000
vn -0.925639 -0.378407 -0.000000
vn 0.000001 0.000002 -1.000000
vn -0.535353 0.000000 -0.844629
vn -0.535353 0.000000 0.844629
vn 0.535352 0.000000 0.844629
vn 0.535353 0.000000 -0.844629
vn 0.505149 -0.331142 -0.796975
vn 0.950258 -0.311463 0.000000
vn 0.505148 -0.331142 0.796975
vn -0.505149 -0.331142 0.796975
vn -0.950258 -0.311463 0.000000
vn -0.505149 -0.331142 -0.796975
vn 1.000000 0.000003 0.000001
vn -0.000000 -0.000002 1.000000
vn -1.000000 -0.000004 -0.000000
vn 0.000000 0.000003 -1.000000
vn 1.000000 0.000000 0.000001
vn 0.000001 0.000000 -1.000000
vn 0.000000 0.429067 -0.903273
vn -0.000001 0.429067 0.903273
vn -0.000000 0.811178 0.584799
vn 0.000000 0.811178 -0.584800
vn 0.510284 0.000000 -0.860006
vn 0.510283 0.000000 0.860007
vn -0.510283 0.000000 0.860007
vn -0.510283 0.000000 -0.860006
vn -0.508036 -0.093750 -0.856219
vn -0.995770 -0.091877 0.000000
vn -0.508036 -0.093750 0.856219
vn 0.508036 -0.093750 0.856219
vn 0.995770 -0.091877 0.000000
vn 0.508036 -0.093750 -0.856219
vn 0.000001 1.000000 -0.000002
vn 0.000002 1.000000 0.000000
vn 0.000001 1.000000 0.000002
vn -0.000001 1.000000 0.000002
vn -0.000002 1.000000 0.000000
vn -0.000001 1.000000 -0.000002
vn -1.000000 -0.000001 -0.000000
vn -1.000000 0.000003 -0.000000
vn 0.000000 0.551152 -0.834405
vn -0.000001 0.551152 0.834405
vn -0.000000 0.787868 0.615844
vn 0.000000 0.787868 -0.615843
vn 0.000000 0.509300 -0.860589
vn -0.000000 0.509300 0.860589
s off
f 1/1/1 5/2/1 21/3/1 17/4/1
f 2/5/2 6/6/2 22/7/2 18/8/2
f 3/9/1 7/10/1 23/11/1 19/12/1
f 4/13/1 8/14/1 24/15/1 20/16/1
f 5/17/3 9/18/3 25/19/3 21/20/3
f 6/21/3 10/22/3 26/23/3 22/24/3
f 7/25/3 11/26/3 27/27/3 23/28/3
f 8/29/3 12/30/3 28/31/3 24/32/3
f 9/33/4 13/34/4 29/35/4 25/36/4
f 10/37/4 14/38/4 30/39/4 26/40/4
f 11/41/4 15/42/4 31/43/4 27/44/4
f 12/45/5 16/46/5 32/47/5 28/48/5
f 13/49/6 1/50/6 17/51/6 29/52/6
f 18/53/6 30/54/6 14/55/6 2/56/6
f 19/57/6 31/58/6 15/59/6 3/60/6
f 20/61/6 32/62/6 16/63/6 4/64/6
f 35/65/7 34/66/7 33/67/7 36/68/7
f 37/69/8 38/70/8 39/71/8 40/72/8
f 33/73/9 34/74/9 38/75/9 37/76/9
f 34/77/3 35/78/3 39/79/3 38/80/3
f 35/65/10 36/68/10 40/81/10 39/82/10
f 36/83/6 33/84/6 37/85/6 40/86/6
f 41/87/1 45/88/1 61/89/1 57/90/1
f 42/91/2 46/92/2 62/93/2 58/94/2
f 43/95/1 47/96/1 63/97/1 59/98/1
f 44/99/1 48/100/1 64/101/1 60/102/1
f 45/103/3 49/104/3 65/105/3 61/106/3
f 46/107/3 50/108/3 66/109/3 62/110/3
f 47/111/3 51/112/3 67/113/3 63/114/3
f 48/115/3 52/116/3 68/117/3 64/118/3
f 49/119/4 53/120/4 69/121/4 65/122/4
f 50/123/4 54/124/4 70/125/4 66/126/4
f 51/127/4 55/128/4 71/129/4 67/130/4
f 52/131/5 56/132/5 72/133/5 68/134/5
f 57/135/6 69/136/6 53/137/6 41/138/6
f 58/139/6 70/140/6 54/141/6 42/142/6
f 59/143/6 71/144/6 55/145/6 43/146/6
f 60/147/6 72/148/6 56/149/6 44/150/6
f 75/151/7 74/152/7 73/153/7 76/154/7
f 77/155/8 78/156/8 79/157/8 80/158/8
f 73/159/9 74/160/9 78/161/9 77/162/9
f 74/163/3 75/164/3 79/165/3 78/166/3
f 75/151/10 76/154/10 80/167/10 79/168/10
f 76/169/6 73/170/6 77/171/6 80/172/6
f 81/173/8 82/174/8 83/175/8 84/176/8
f 81/177/11 85/178/11 86/179/11 82/180/11
f 82/181/12 86/182/12 87/183/12 83/184/12
f 83/185/13 87/186/13 88/187/13 84/188/13
f 85/189/14 81/190/14 84/191/14 88/192/14
f 89/193/8 90/194/8 91/195/8 92/196/8
f 89/197/11 93/198/11 94/199/11 90/200/11
f 90/201/12 94/202/12 95/203/12 91/204/12
f 91/205/13 95/206/13 96/207/13 92/208/13
f 93/209/14 89/210/14 92/211/14 96/212/14
f 97/213/15 102/214/15 104/215/15 103/216/15
f 102/214/2 101/217/2 105/218/2 104/215/2
f 101/217/16 100/219/16 106/220/16 105/218/16
f 99/221/17 107/222/17 106/223/17 100/224/17
f 99/221/4 98/225/4 108/226/4 107/222/4
f 97/213/18 103/216/18 108/226/18 98/225/18
f 103/227/19 110/228/19 109/229/19 108/230/19
f 107/231/20 108/230/20 109/229/20 111/232/20
f 107/231/21 111/232/21 112/233/21 106/234/21
f 105/235/22 106/234/22 112/233/22 113/236/22
f 104/237/23 105/235/23 113/236/23 114/238/23
f 103/227/24 104/237/24 114/238/24 110/228/24
f 110/239/7 114/240/7 115/241/7
f 114/240/7 113/242/7 115/241/7
f 113/242/7 112/243/7 115/241/7
f 111/244/7 115/241/7 112/243/7
f 111/244/7 109/245/7 115/241/7
f 110/239/7 115/241/7 109/245/7
f 116/246/8 117/247/8 118/248/8 119/249/8
f 116/250/25 120/251/25 121/252/25 117/253/25
f 117/254/26 121/255/26 122/256/26 118/257/26
f 118/258/27 122/259/27 123/260/27 119/261/27
f 120/262/28 116/263/28 119/264/28 123/265/28
f 127/266/29 124/267/29 128/268/29 129/269/29
f 126/270/12 127/271/12 129/272/12 130/273/12
f 124/274/30 125/275/30 131/276/30 128/277/30
f 128/277/31 131/276/31 132/278/31 133/279/31
f 130/273/32 129/272/32 135/280/32 134/281/32
f 129/269/29 128/268/29 133/282/29 135/283/29
f 135/283/5 133/282/5 136/284/5 137/285/5
f 134/281/33 135/280/33 137/286/33 138/287/33
f 133/279/34 132/278/34 139/288/34 136/289/34
f 136/289/7 139/288/7 138/287/7 137/286/7
f 144/290/35 145/291/35 147/292/35 146/293/35
f 144/290/4 146/293/4 148/294/4 143/295/4
f 143/295/36 148/294/36 149/296/36 142/297/36
f 141/298/37 142/299/37 149/300/37 150/301/37
f 141/298/2 150/301/2 151/302/2 140/303/2
f 145/291/38 140/303/38 151/302/38 147/292/38
f 147/292/39 151/302/39 153/304/39 152/305/39
f 150/301/40 154/306/40 153/304/40 151/302/40
f 150/301/41 149/300/41 155/307/41 154/306/41
f 148/294/42 156/308/42 155/309/42 149/296/42
f 146/293/43 157/310/43 156/308/43 148/294/43
f 146/293/44 147/292/44 152/305/44 157/310/44
f 157/311/45 152/312/45 158/313/45
f 157/311/46 158/313/46 156/314/46
f 156/314/47 158/313/47 155/315/47
f 154/316/48 155/315/48 158/313/48
f 154/316/49 158/313/49 153/317/49
f 152/312/50 153/317/50 158/313/50
f 139/318/2 132/319/2 159/320/2 160/321/2
f 138/322/1 139/318/1 160/321/1 161/323/1
f 134/324/51 138/322/51 161/323/51 162/325/51
f 130/326/1 134/324/1 162/325/1 163/327/1
f 132/319/2 131/328/2 164/329/2 159/320/2
f 131/328/2 125/330/2 165/331/2 164/329/2
f 126/332/1 130/326/1 163/327/1 166/333/1
f 125/330/52 126/332/52 166/333/52 165/331/52
f 166/334/12 163/335/12 169/336/12 168/337/12
f 164/338/30 165/339/30 167/340/30 170/341/30
f 159/342/53 164/338/53 170/341/53 171/343/53
f 163/335/54 162/344/54 172/345/54 169/336/54
f 162/344/55 161/346/55 173/347/55 172/345/55
f 161/346/7 160/348/7 174/349/7 173/347/7
f 160/348/56 159/342/56 171/343/56 174/349/56
f 174/350/4 171/351/4 175/352/4 176/353/4
f 173/354/29 174/350/29 176/353/29 177/355/29
f 172/356/4 173/354/4 177/355/4 178/357/4
f 169/358/4 172/356/4 178/357/4 179/359/4
f 171/351/4 170/360/4 180/361/4 175/352/4
f 170/360/4 167/362/4 181/363/4 180/361/4
f 168/364/4 169/358/4 179/359/4 182/365/4
f 167/362/4 168/364/4 182/365/4 181/363/4
f 181/366/8 182/367/8 184/368/8 183/369/8
f 182/370/6 179/371/6 185/372/6 184/373/6
f 180/374/30 181/375/30 183/376/30 186/377/30
f 175/378/57 180/374/57 186/377/57 187/379/57
f 179/371/58 178/380/58 188/381/58 185/372/58
f 178/380/55 177/382/55 189/383/55 188/381/55
f 177/382/7 176/384/7 190/385/7 189/383/7
f 176/384/56 175/378/56 187/379/56 190/385/56
f 183/386/1 184/387/1 185/388/1 186/389/1
f 186/389/1 185/388/1 188/390/1 187/391/1
f 187/391/1 188/390/1 189/392/1 190/393/1
f 120/394/7 123/395/7 122/396/7 121/397/7
