# Blender v2.62 (sub 0) OBJ File: 'cherepanov wheel.blend'
# www.blender.org
o Mesh.002_Mesh.002_Circle.001_Circle.002
v 0.000255 0.398757 -0.745566
v 0.197206 0.345985 -0.745566
v 0.197206 0.345985 -0.797323
v 0.000255 0.398757 -0.797323
v 0.341384 0.201807 -0.745566
v 0.341384 0.201807 -0.797323
v 0.394157 0.004856 -0.745566
v 0.394157 0.004856 -0.797323
v 0.341384 -0.192095 -0.745566
v 0.341384 -0.192095 -0.797323
v 0.197206 -0.336273 -0.745566
v 0.197206 -0.336273 -0.797323
v 0.000255 -0.389045 -0.745566
v 0.000255 -0.389045 -0.797323
v -0.196695 -0.336273 -0.745566
v -0.196695 -0.336273 -0.797323
v -0.340873 -0.192095 -0.745566
v -0.340873 -0.192095 -0.797323
v -0.393646 0.004856 -0.745566
v -0.393646 0.004856 -0.797323
v -0.340873 0.201807 -0.745566
v -0.340873 0.201807 -0.797323
v -0.196695 0.345985 -0.745566
v -0.196695 0.345985 -0.797323
v -0.174663 0.307823 -0.797323
v 0.000255 0.354693 -0.797323
v -0.302712 0.179774 -0.797323
v -0.349581 0.004856 -0.797323
v -0.302712 -0.170062 -0.797323
v -0.174663 -0.298111 -0.797323
v 0.000255 -0.344981 -0.797323
v 0.175174 -0.298112 -0.797323
v 0.303223 -0.170062 -0.797323
v 0.350092 0.004856 -0.797323
v 0.303223 0.179774 -0.797323
v 0.175174 0.307823 -0.797323
v 0.175174 0.307823 -0.846355
v 0.000255 0.354693 -0.846355
v 0.303223 0.179774 -0.846355
v 0.350092 0.004856 -0.846355
v 0.303223 -0.170062 -0.846355
v 0.175174 -0.298112 -0.846355
v 0.000255 -0.344981 -0.846355
v -0.174663 -0.298111 -0.846355
v -0.302712 -0.170062 -0.846355
v -0.349581 0.004856 -0.846355
v -0.302712 0.179774 -0.846355
v -0.174663 0.307823 -0.846355
v 0.000255 0.004856 -0.846355
v 0.000255 0.004856 -0.745566
v 0.002915 0.398757 0.744985
v -0.194036 0.345985 0.744985
v -0.194036 0.345985 0.796742
v 0.002915 0.398757 0.796742
v -0.338214 0.201807 0.744985
v -0.338214 0.201807 0.796742
v -0.390987 0.004856 0.744985
v -0.390987 0.004856 0.796742
v -0.338214 -0.192095 0.744985
v -0.338214 -0.192095 0.796742
v -0.194036 -0.336273 0.744985
v -0.194036 -0.336273 0.796742
v 0.002915 -0.389045 0.744985
v 0.002915 -0.389045 0.796742
v 0.199865 -0.336273 0.744985
v 0.199865 -0.336273 0.796742
v 0.344043 -0.192095 0.744985
v 0.344043 -0.192095 0.796742
v 0.396816 0.004856 0.744985
v 0.396816 0.004856 0.796742
v 0.344043 0.201807 0.744985
v 0.344043 0.201807 0.796742
v 0.199865 0.345985 0.744985
v 0.199865 0.345985 0.796742
v 0.177833 0.307823 0.796742
v 0.002915 0.354693 0.796742
v 0.305882 0.179774 0.796742
v 0.352751 0.004856 0.796742
v 0.305882 -0.170062 0.796742
v 0.177833 -0.298111 0.796742
v 0.002915 -0.344981 0.796742
v -0.172004 -0.298112 0.796742
v -0.300053 -0.170062 0.796742
v -0.346922 0.004856 0.796742
v -0.300053 0.179774 0.796742
v -0.172004 0.307823 0.796742
v -0.172004 0.307823 0.845774
v 0.002915 0.354693 0.845774
v -0.300053 0.179774 0.845774
v -0.346922 0.004856 0.845774
v -0.300053 -0.170062 0.845774
v -0.172004 -0.298112 0.845774
v 0.002915 -0.344981 0.845774
v 0.177833 -0.298111 0.845774
v 0.305882 -0.170062 0.845774
v 0.352751 0.004856 0.845774
v 0.305882 0.179774 0.845774
v 0.177833 0.307823 0.845774
v 0.002915 0.004856 0.845774
v 0.002915 0.004856 0.744985
vt 0.055095 0.940906
vt 0.120553 0.972225
vt 0.125049 0.955612
vt 0.067975 0.926269
vt 0.190250 0.977073
vt 0.186882 0.959290
vt 0.254354 0.943303
vt 0.241605 0.929442
vt 0.293444 0.878335
vt 0.273491 0.873377
vt 0.289765 0.801946
vt 0.271736 0.808181
vt 0.249087 0.740545
vt 0.237066 0.754434
vt 0.185941 0.708061
vt 0.181924 0.724632
vt 0.115022 0.708061
vt 0.119273 0.725853
vt 0.051026 0.743489
vt 0.063730 0.757315
vt 0.012000 0.807163
vt 0.031326 0.812137
vt 0.016457 0.879923
vt 0.033027 0.874596
vt 0.119403 0.968760
vt 0.123250 0.954402
vt 0.070346 0.923858
vt 0.059836 0.934369
vt 0.025444 0.874802
vt 0.039802 0.870955
vt 0.039802 0.809868
vt 0.025444 0.806020
vt 0.070346 0.756964
vt 0.059835 0.746453
vt 0.123249 0.726420
vt 0.119402 0.712061
vt 0.188184 0.712061
vt 0.184337 0.726419
vt 0.247752 0.746452
vt 0.237241 0.756963
vt 0.282143 0.806019
vt 0.267784 0.809867
vt 0.267784 0.870954
vt 0.282142 0.874801
vt 0.237241 0.923857
vt 0.247751 0.934368
vt 0.184338 0.954401
vt 0.188185 0.968760
vt 0.255340 0.817956
vt 0.228178 0.772668
vt 0.240746 0.760055
vt 0.270247 0.813817
vt 0.181719 0.745016
vt 0.185740 0.728741
vt 0.128925 0.744243
vt 0.124682 0.728741
vt 0.083824 0.767819
vt 0.073770 0.756992
vt 0.057223 0.810503
vt 0.042213 0.805411
vt 0.055983 0.861551
vt 0.039886 0.865211
vt 0.083085 0.906533
vt 0.070741 0.919681
vt 0.131010 0.931643
vt 0.127083 0.947877
vt 0.184074 0.934457
vt 0.187804 0.950000
vt 0.229102 0.912249
vt 0.239125 0.923303
vt 0.255628 0.869190
vt 0.272143 0.873839
vt 0.533558 0.852659
vt 0.419567 0.883202
vt 0.533558 0.913746
vt 0.503014 0.966649
vt 0.450111 0.997193
vt 0.389023 0.997193
vt 0.336120 0.966649
vt 0.305576 0.913746
vt 0.305576 0.852658
vt 0.336120 0.799755
vt 0.389024 0.769212
vt 0.450111 0.769211
vt 0.503014 0.799755
vt 0.627553 0.742457
vt 0.567986 0.776849
vt 0.661944 0.870806
vt 0.696335 0.742457
vt 0.755902 0.776848
vt 0.790293 0.836415
vt 0.790293 0.905197
vt 0.755902 0.964764
vt 0.696335 0.999155
vt 0.627553 0.999155
vt 0.567986 0.964764
vt 0.533596 0.905197
vt 0.533596 0.836415
vt 0.191265 0.988061
vt 0.112858 0.986266
vt 0.117655 0.968382
vt 0.185899 0.967483
vt 0.046766 0.948941
vt 0.060309 0.934802
vt 0.008000 0.880975
vt 0.027646 0.875793
vt 0.010617 0.799355
vt 0.031445 0.806576
vt 0.058602 0.733938
vt 0.072057 0.749062
vt 0.125750 0.694000
vt 0.130648 0.712653
vt 0.199527 0.694000
vt 0.195006 0.711103
vt 0.263664 0.730456
vt 0.250254 0.744308
vt 0.302921 0.797960
vt 0.283383 0.803518
vt 0.303022 0.879806
vt 0.281959 0.873886
vt 0.260406 0.948307
vt 0.246998 0.934488
vt 0.064534 0.749150
vt 0.075044 0.759661
vt 0.127948 0.729117
vt 0.124100 0.714759
vt 0.192882 0.714759
vt 0.189035 0.729117
vt 0.241938 0.759661
vt 0.252449 0.749150
vt 0.272482 0.812564
vt 0.286840 0.808717
vt 0.272482 0.873652
vt 0.286840 0.877499
vt 0.252449 0.937066
vt 0.241938 0.926555
vt 0.192882 0.971457
vt 0.189035 0.957099
vt 0.124100 0.971457
vt 0.127947 0.957098
vt 0.075044 0.926555
vt 0.064533 0.937066
vt 0.044501 0.873652
vt 0.030142 0.877499
vt 0.044501 0.812564
vt 0.030143 0.808717
vt 0.246217 0.934179
vt 0.279295 0.877800
vt 0.263493 0.873052
vt 0.233346 0.920830
vt 0.282244 0.813674
vt 0.264937 0.817021
vt 0.252588 0.754031
vt 0.238694 0.765962
vt 0.194722 0.716044
vt 0.188997 0.734918
vt 0.126253 0.716044
vt 0.131204 0.733312
vt 0.070521 0.749165
vt 0.083001 0.760733
vt 0.041719 0.803480
vt 0.056942 0.807097
vt 0.042989 0.865000
vt 0.059645 0.861362
vt 0.069721 0.923984
vt 0.083677 0.912961
vt 0.124270 0.962967
vt 0.130391 0.945068
vt 0.189147 0.964061
vt 0.185374 0.948044
vt 0.502900 0.799616
vt 0.419453 0.883063
vt 0.449997 0.769072
vt 0.388910 0.769072
vt 0.336006 0.799616
vt 0.305463 0.852519
vt 0.305463 0.913607
vt 0.336006 0.966510
vt 0.388909 0.997054
vt 0.449997 0.997054
vt 0.502900 0.966510
vt 0.533444 0.913607
vt 0.533444 0.852520
vt 0.627291 0.742754
vt 0.696073 0.742754
vt 0.661682 0.871103
vt 0.567724 0.777145
vt 0.533333 0.836712
vt 0.533333 0.905494
vt 0.567724 0.965061
vt 0.627291 0.999451
vt 0.696073 0.999452
vt 0.755640 0.965061
vt 0.790031 0.905494
vt 0.790031 0.836712
vt 0.755640 0.777145
vn 0.258815 0.965927 0.000000
vn 0.707107 0.707107 0.000000
vn 0.965926 0.258820 0.000000
vn 0.965926 -0.258820 0.000000
vn 0.707107 -0.707107 0.000000
vn 0.258815 -0.965927 0.000000
vn -0.258816 -0.965927 0.000000
vn -0.707107 -0.707107 0.000000
vn -0.965926 -0.258820 0.000000
vn -0.965926 0.258820 0.000000
vn -0.707107 0.707107 0.000000
vn -0.258816 0.965927 0.000000
vn 0.000000 0.000000 -1.000000
vn 0.258822 0.965925 0.000000
vn 0.965926 0.258819 0.000000
vn 0.965926 -0.258819 -0.000000
vn 0.707109 -0.707104 -0.000000
vn 0.258817 -0.965926 -0.000001
vn -0.258824 -0.965925 -0.000001
vn -0.965926 -0.258818 -0.000000
vn -0.965926 0.258818 0.000000
vn -0.258823 0.965925 0.000000
vn -0.000000 -0.000000 1.000000
vn -0.258815 0.965927 0.000000
vn -0.258815 -0.965927 0.000000
vn 0.258816 -0.965927 0.000000
vn 0.258816 0.965927 0.000000
vn -0.258822 0.965925 0.000000
vn -0.707110 -0.707104 -0.000000
vn -0.258817 -0.965926 -0.000001
vn 0.258824 -0.965925 -0.000001
vn 0.258824 0.965925 0.000000
s off
f 1/1/1 2/2/1 3/3/1 4/4/1
f 5/5/2 6/6/2 3/3/2 2/2/2
f 7/7/3 8/8/3 6/6/3 5/5/3
f 9/9/4 10/10/4 8/8/4 7/7/4
f 9/9/5 11/11/5 12/12/5 10/10/5
f 11/11/6 13/13/6 14/14/6 12/12/6
f 13/13/7 15/15/7 16/16/7 14/14/7
f 17/17/8 18/18/8 16/16/8 15/15/8
f 19/19/9 20/20/9 18/18/9 17/17/9
f 21/21/10 22/22/10 20/20/10 19/19/10
f 21/21/11 23/23/11 24/24/11 22/22/11
f 1/1/12 4/4/12 24/24/12 23/23/12
f 4/25/13 26/26/13 25/27/13 24/28/13
f 22/29/13 24/28/13 25/27/13 27/30/13
f 22/29/13 27/30/13 28/31/13 20/32/13
f 20/32/13 28/31/13 29/33/13 18/34/13
f 18/34/13 29/33/13 30/35/13 16/36/13
f 14/37/13 16/36/13 30/35/13 31/38/13
f 12/39/13 14/37/13 31/38/13 32/40/13
f 10/41/13 12/39/13 32/40/13 33/42/13
f 10/41/13 33/42/13 34/43/13 8/44/13
f 8/44/13 34/43/13 35/45/13 6/46/13
f 6/46/13 35/45/13 36/47/13 3/48/13
f 4/25/13 3/48/13 36/47/13 26/26/13
f 26/49/14 36/50/14 37/51/14 38/52/14
f 35/53/2 39/54/2 37/51/2 36/50/2
f 34/55/15 40/56/15 39/54/15 35/53/15
f 33/57/16 41/58/16 40/56/16 34/55/16
f 33/57/17 32/59/17 42/60/17 41/58/17
f 32/59/18 31/61/18 43/62/18 42/60/18
f 31/61/19 30/63/19 44/64/19 43/62/19
f 29/65/8 45/66/8 44/64/8 30/63/8
f 28/67/20 46/68/20 45/66/20 29/65/20
f 27/69/21 47/70/21 46/68/21 28/67/21
f 27/69/11 25/71/11 48/72/11 47/70/11
f 26/49/22 38/52/22 48/72/22 25/71/22
f 38/73/13 49/74/13 48/75/13
f 47/76/13 48/75/13 49/74/13
f 47/76/13 49/74/13 46/77/13
f 46/77/13 49/74/13 45/78/13
f 45/78/13 49/74/13 44/79/13
f 43/80/13 44/79/13 49/74/13
f 42/81/13 43/80/13 49/74/13
f 41/82/13 42/81/13 49/74/13
f 41/82/13 49/74/13 40/83/13
f 40/83/13 49/74/13 39/84/13
f 39/84/13 49/74/13 37/85/13
f 38/73/13 37/85/13 49/74/13
f 2/86/23 1/87/23 50/88/23
f 2/86/23 50/88/23 5/89/23
f 5/89/23 50/88/23 7/90/23
f 7/90/23 50/88/23 9/91/23
f 11/92/23 9/91/23 50/88/23
f 13/93/23 11/92/23 50/88/23
f 15/94/23 13/93/23 50/88/23
f 15/94/23 50/88/23 17/95/23
f 17/95/23 50/88/23 19/96/23
f 19/96/23 50/88/23 21/97/23
f 23/98/23 21/97/23 50/88/23
f 50/88/23 1/87/23 23/98/23
f 51/99/24 52/100/24 53/101/24 54/102/24
f 55/103/11 56/104/11 53/101/11 52/100/11
f 57/105/10 58/106/10 56/104/10 55/103/10
f 59/107/9 60/108/9 58/106/9 57/105/9
f 59/107/8 61/109/8 62/110/8 60/108/8
f 61/109/25 63/111/25 64/112/25 62/110/25
f 63/111/26 65/113/26 66/114/26 64/112/26
f 67/115/5 68/116/5 66/114/5 65/113/5
f 69/117/4 70/118/4 68/116/4 67/115/4
f 71/119/3 72/120/3 70/118/3 69/117/3
f 71/119/2 73/121/2 74/122/2 72/120/2
f 51/99/27 54/102/27 74/122/27 73/121/27
f 54/123/23 76/124/23 75/125/23 74/126/23
f 72/127/23 74/126/23 75/125/23 77/128/23
f 72/127/23 77/128/23 78/129/23 70/130/23
f 70/130/23 78/129/23 79/131/23 68/132/23
f 68/132/23 79/131/23 80/133/23 66/134/23
f 64/135/23 66/134/23 80/133/23 81/136/23
f 62/137/23 64/135/23 81/136/23 82/138/23
f 60/139/23 62/137/23 82/138/23 83/140/23
f 60/139/23 83/140/23 84/141/23 58/142/23
f 58/142/23 84/141/23 85/143/23 56/144/23
f 56/144/23 85/143/23 86/145/23 53/146/23
f 54/123/23 53/146/23 86/145/23 76/124/23
f 76/147/28 86/148/28 87/149/28 88/150/28
f 85/151/11 89/152/11 87/149/11 86/148/11
f 84/153/21 90/154/21 89/152/21 85/151/21
f 83/155/20 91/156/20 90/154/20 84/153/20
f 83/155/29 82/157/29 92/158/29 91/156/29
f 82/157/30 81/159/30 93/160/30 92/158/30
f 81/159/31 80/161/31 94/162/31 93/160/31
f 79/163/5 95/164/5 94/162/5 80/161/5
f 78/165/16 96/166/16 95/164/16 79/163/16
f 77/167/15 97/168/15 96/166/15 78/165/15
f 77/167/2 75/169/2 98/170/2 97/168/2
f 76/147/32 88/150/32 98/170/32 75/169/32
f 88/171/23 99/172/23 98/173/23
f 97/174/23 98/173/23 99/172/23
f 97/174/23 99/172/23 96/175/23
f 96/175/23 99/172/23 95/176/23
f 95/176/23 99/172/23 94/177/23
f 93/178/23 94/177/23 99/172/23
f 92/179/23 93/178/23 99/172/23
f 91/180/23 92/179/23 99/172/23
f 91/180/23 99/172/23 90/181/23
f 90/181/23 99/172/23 89/182/23
f 89/182/23 99/172/23 87/183/23
f 88/171/23 87/183/23 99/172/23
f 52/184/13 51/185/13 100/186/13
f 52/184/13 100/186/13 55/187/13
f 55/187/13 100/186/13 57/188/13
f 57/188/13 100/186/13 59/189/13
f 61/190/13 59/189/13 100/186/13
f 63/191/13 61/190/13 100/186/13
f 65/192/13 63/191/13 100/186/13
f 65/192/13 100/186/13 67/193/13
f 67/193/13 100/186/13 69/194/13
f 69/194/13 100/186/13 71/195/13
f 73/196/13 71/195/13 100/186/13
f 73/196/13 100/186/13 51/185/13
