# Blender v2.62 (sub 0) OBJ File: 'minecart_bounds.blend'
# www.blender.org
o Mesh_Cube.001
v 1.325311 1.244177 -1.710500
v -1.325309 1.244177 -1.710503
v -1.108012 1.244177 -1.426119
v 1.093756 1.244177 -1.426117
v -1.325312 1.244177 1.710499
v -1.108015 1.244177 1.427535
v 1.325308 1.244177 1.710503
v 1.093754 1.244177 1.427538
v 0.766731 -0.669639 1.005468
v -0.780992 -0.669639 1.005466
v 0.766734 -0.669639 -1.004048
v -0.780989 -0.669639 -1.004048
v 0.591622 -1.718053 0.784856
v -0.591133 -1.718053 0.784856
v -0.591132 -1.718053 -0.784999
v 0.591623 -1.718053 -0.784998
v -0.960352 -1.098706 -1.646248
v 0.960355 -1.098706 -1.646245
v 0.960353 -1.098706 1.574790
v -0.960355 -1.098706 1.574788
vt 0.988498 0.675904
vt 0.988498 0.937312
vt 0.972101 0.915882
vt 0.972101 0.698741
vt 0.791255 0.937313
vt 0.807570 0.915883
vt 0.791255 0.675905
vt 0.807569 0.698741
vt 0.467948 0.999046
vt 0.685090 0.999046
vt 0.652839 0.808740
vt 0.499676 0.810837
vt 0.685083 0.998909
vt 0.468011 0.998759
vt 0.499667 0.810638
vt 0.652884 0.809327
vt 0.685079 0.999237
vt 0.468643 0.998189
vt 0.499270 0.810904
vt 0.652880 0.808806
vt 0.685227 0.999227
vt 0.468741 0.998572
vt 0.500337 0.810888
vt 0.653631 0.809577
vt 0.523328 0.831169
vt 0.639189 0.831169
vt 0.639189 0.983807
vt 0.523328 0.983808
vt 0.906604 0.821464
vt 0.837287 0.821464
vt 0.837499 0.789502
vt 0.906604 0.789715
vt 0.000000 0.000000
vt 0.809644 0.730195
vt 0.934554 0.729709
vt 0.934781 0.882163
vt 0.809871 0.882650
vn -0.000000 1.000000 0.000000
vn -0.000001 1.000000 -0.000000
vn 0.000001 0.215363 -0.976534
vn -0.985713 0.168433 -0.000001
vn 0.985713 0.168434 0.000001
vn -0.000001 0.215363 0.976534
vn 0.000000 -1.000000 0.000000
vn 0.000001 -0.027415 -0.999624
vn 0.859248 -0.511559 0.000001
vn 0.988084 -0.153916 0.000001
vn -0.000001 -0.057828 0.998327
vn -0.988084 -0.153917 -0.000001
vn -0.858950 -0.512059 -0.000001
vn -0.000000 -0.786954 0.617011
vn 0.000001 -0.811870 -0.583838
s off
f 1/1/1 2/2/1 3/3/1 4/4/1
f 2/2/1 5/5/1 6/6/1 3/3/1
f 7/7/2 1/1/2 4/4/2 8/8/2
f 5/5/1 7/7/1 8/8/1 6/6/1
f 6/9/3 8/10/3 9/11/3 10/12/3
f 8/13/4 4/14/4 11/15/4 9/16/4
f 3/17/5 6/18/5 10/19/5 12/20/5
f 4/21/6 3/22/6 12/23/6 11/24/6
f 9/25/1 11/26/1 12/27/1 10/28/1
f 13/29/7 14/30/7 15/31/7 16/32/7
f 1/33/8 18/34/8 17/33/8 2/1/8
f 19/33/9 13/32/9 16/33/9 18/35/9
f 18/33/10 1/7/10 7/33/10 19/35/10
f 19/33/11 7/5/11 5/33/11 20/36/11
f 20/33/12 5/2/12 2/33/12 17/37/12
f 14/33/13 20/37/13 17/33/13 15/30/13
f 20/33/14 14/29/14 13/33/14 19/36/14
f 18/33/15 16/31/15 15/33/15 17/34/15
