# Blender v2.62 (sub 0) OBJ File: 'single-left.blend'
# www.blender.org
o Mesh.002_Plane
v -0.499962 -0.127387 -1.379658
v -0.499962 -0.127387 1.369953
v -0.499962 0.039167 1.183304
v -0.499962 0.039167 -1.193009
v 0.676632 0.039167 -1.193009
v 0.676632 -0.127387 -1.379658
v 0.397957 0.039167 1.183304
v 0.397957 -0.127387 1.369953
vt 0.909214 0.296404
vt 0.038511 0.296404
vt 0.101790 0.166470
vt 0.821189 0.161144
vt 0.754126 0.426170
vt 0.754126 0.111991
vt 0.885587 0.111991
vt 0.885587 0.426170
vt 0.818317 0.298994
vt 0.124315 0.304570
vt 0.039398 0.162945
vt 0.879363 0.162945
vt 0.197609 0.108480
vt 0.197609 0.425894
vt 0.072810 0.425894
vt 0.072810 0.108480
vt 0.166107 0.108887
vt 0.848021 0.108887
vt 0.848021 0.426301
vt 0.166107 0.426301
vt 0.173198 0.108648
vt 0.762533 0.108648
vt 0.762533 0.426062
vt 0.173198 0.426062
vn -1.000000 -0.000000 0.000000
vn 0.000000 0.746130 -0.665800
vn 0.994141 0.000000 0.108095
vn 0.000000 0.746130 0.665800
vn 0.000000 -1.000000 -0.000000
vn 0.000000 1.000000 0.000000
s off
f 1/1/1 2/2/1 3/3/1 4/4/1
f 6/5/2 1/6/2 4/7/2 5/8/2
f 5/9/3 7/10/3 8/11/3 6/12/3
f 2/13/4 8/14/4 7/15/4 3/16/4
f 2/17/5 1/18/5 6/19/5 8/20/5
f 7/21/6 5/22/6 4/23/6 3/24/6
o Mesh.001_Cube.002
v -0.076406 0.047134 -1.154962
v -0.403592 0.047134 -1.154962
v -0.403592 0.088921 -1.154962
v -0.076406 0.088921 -1.154962
v -0.076406 0.088921 1.140580
v -0.076406 0.047134 1.140580
v -0.403592 0.088921 1.140582
v -0.403592 0.047134 1.140582
v 0.069147 0.088921 -1.154962
v 0.396333 0.088921 -1.154962
v 0.396333 0.047134 -1.154962
v 0.069147 0.047134 -1.154962
v 0.396333 0.088921 1.140580
v 0.396333 0.047134 1.140580
v 0.069147 0.088921 1.140580
v 0.069147 0.047134 1.140580
v 0.416934 0.090387 0.793910
v -0.499924 0.090387 0.802811
v 0.385661 0.090387 0.943801
v -0.499924 0.090387 0.952703
v 0.637675 0.090387 -0.951799
v -0.503082 0.090387 -0.961625
v 0.637675 0.090387 -0.801909
v -0.484133 0.090387 -0.812938
v -0.484133 0.216218 -0.812938
v 0.637675 0.216218 -0.801909
v -0.503082 0.216218 -0.961625
v 0.637675 0.216218 -0.951799
v -0.499924 0.216160 0.952703
v 0.385661 0.216160 0.943801
v -0.499924 0.216160 0.802811
v 0.416934 0.216160 0.793910
vt 0.548414 0.461047
vt 0.548414 0.564834
vt 0.538289 0.564781
vt 0.538289 0.460994
vt 0.564369 0.559251
vt 0.036346 0.559251
vt 0.043993 0.467438
vt 0.572017 0.467438
vt 0.549502 0.459232
vt 0.549503 0.563018
vt 0.539377 0.562965
vt 0.539376 0.459178
vt 0.043993 0.463233
vt 0.572017 0.463233
vt 0.564369 0.555046
vt 0.036346 0.555046
vt 0.033082 0.562209
vt 0.033082 0.458423
vt 0.572971 0.458422
vt 0.572971 0.562210
vt 0.571884 0.458156
vt 0.571883 0.561943
vt 0.031994 0.561943
vt 0.031994 0.458156
vt 0.524986 0.564995
vt 0.524986 0.461312
vt 0.535101 0.461364
vt 0.535101 0.565049
vt 0.042905 0.466803
vt 0.570929 0.466803
vt 0.563281 0.558616
vt 0.035258 0.558616
vt 0.536954 0.456859
vt 0.536954 0.560646
vt 0.526828 0.560593
vt 0.526828 0.456807
vt 0.563179 0.557942
vt 0.023290 0.557942
vt 0.031109 0.464065
vt 0.570999 0.464065
vt 0.036346 0.564077
vt 0.036346 0.460290
vt 0.576235 0.460290
vt 0.576235 0.564077
vt 0.574059 0.459224
vt 0.574059 0.563010
vt 0.034170 0.563010
vt 0.034170 0.459223
vt 0.440781 0.900537
vt 0.094929 0.900536
vt 0.094929 0.848694
vt 0.440780 0.848694
vt 0.440781 0.900917
vt 0.094930 0.900918
vt 0.094930 0.849075
vt 0.440781 0.849075
vt 0.440520 0.894131
vt 0.095175 0.894131
vt 0.095435 0.848701
vt 0.440781 0.848701
vt 0.095953 0.848935
vt 0.441298 0.848935
vt 0.441039 0.894366
vt 0.095693 0.894366
vt 0.304707 0.856227
vt 0.356550 0.856227
vt 0.356550 0.899747
vt 0.304707 0.899747
vt 0.303405 0.847905
vt 0.303405 0.899747
vt 0.259884 0.899747
vt 0.259884 0.847905
vt 0.101304 0.966112
vt 0.101305 0.914270
vt 0.447155 0.914270
vt 0.447155 0.966112
vt 0.440518 0.893757
vt 0.095178 0.893757
vt 0.095440 0.848327
vt 0.440781 0.848327
vt 0.095954 0.848561
vt 0.441296 0.848561
vt 0.441033 0.893991
vt 0.095693 0.893991
vt 0.401303 0.848467
vt 0.401303 0.900310
vt 0.357802 0.900310
vt 0.357802 0.848467
vt 0.387998 0.854107
vt 0.439841 0.854107
vt 0.439841 0.897609
vt 0.387998 0.897608
vt 0.101462 0.966270
vt 0.101462 0.914426
vt 0.447314 0.914427
vt 0.447313 0.966269
vn 0.000000 -0.000000 -1.000000
vn 1.000000 0.000000 0.000000
vn 0.000004 0.000000 1.000000
vn 0.000000 -0.000000 1.000000
vn -0.009830 0.000000 0.999952
vn 0.008613 0.000000 -0.999963
vn -0.991976 0.000000 0.126423
vn 0.010051 0.000000 0.999950
vn -0.009708 0.000000 -0.999953
vn 0.978921 0.000000 0.204239
s off
f 9/25/7 10/26/7 11/27/7 12/28/7
f 14/29/8 9/30/8 12/31/8 13/32/8
f 13/33/9 15/34/9 16/35/9 14/36/9
f 10/37/1 16/38/1 15/39/1 11/40/1
f 10/41/5 9/42/5 14/43/5 16/44/5
f 15/45/6 13/46/6 12/47/6 11/48/6
f 17/49/7 18/50/7 19/51/7 20/52/7
f 18/53/8 21/54/8 22/55/8 19/56/8
f 21/57/10 23/58/10 24/59/10 22/60/10
f 23/61/1 17/62/1 20/63/1 24/64/1
f 20/65/5 19/66/5 22/67/5 24/68/5
f 23/69/6 21/70/6 18/71/6 17/72/6
f 26/73/5 25/74/5 27/75/5 28/76/5
f 30/77/5 29/78/5 31/79/5 32/80/5
f 32/81/11 31/82/11 34/83/11 33/84/11
f 29/85/12 30/86/12 35/87/12 36/88/12
f 30/89/13 32/90/13 33/91/13 35/92/13
f 31/93/8 29/94/8 36/95/8 34/96/8
f 34/97/6 36/98/6 35/99/6 33/100/6
f 28/101/14 27/102/14 38/103/14 37/104/14
f 25/105/15 26/106/15 39/107/15 40/108/15
f 27/109/16 25/110/16 40/111/16 38/112/16
f 26/113/1 28/114/1 37/115/1 39/116/1
f 38/117/6 40/118/6 39/119/6 37/120/6
