# Blender v2.62 (sub 0) OBJ File: ''
# www.blender.org
o Mesh.001_Circle.001_Circle
v -0.851900 -0.217430 0.371606
v -0.851908 -0.376371 0.212664
v -0.782663 -0.376371 0.212660
v -0.782655 -0.217430 0.371602
v -0.851937 0.216807 -0.380515
v -0.851929 0.375749 -0.221573
v -0.782685 0.375749 -0.221576
v -0.782692 0.216807 -0.380518
v -0.782653 -0.000311 0.429779
v -0.851897 -0.000311 0.429783
v -0.851940 -0.000311 -0.438691
v -0.782695 -0.000311 -0.438695
v -0.851937 -0.217429 -0.380515
v -0.782692 -0.217429 -0.380518
v -0.782656 0.216807 0.371602
v -0.851900 0.216807 0.371606
v -0.851929 -0.376371 -0.221573
v -0.782685 -0.376371 -0.221576
v -0.851908 0.375749 0.212664
v -0.782663 0.375749 0.212661
v -0.851919 -0.434548 -0.004455
v -0.782674 -0.434548 -0.004458
v -0.851919 0.433926 -0.004454
v -0.782674 0.433926 -0.004458
v -0.851907 -0.134831 0.228540
v -0.851912 -0.233306 0.130065
v -0.851930 0.134208 -0.237449
v -0.851925 0.232683 -0.138974
v -0.851905 -0.000311 0.264584
v -0.851932 -0.000311 -0.273493
v -0.851930 -0.134830 -0.237449
v -0.851907 0.134208 0.228540
v -0.851925 -0.233306 -0.138974
v -0.851912 0.232683 0.130065
v -0.851919 -0.269350 -0.004455
v -0.851919 0.268728 -0.004454
v -0.910710 -0.000311 -0.273490
v -0.910708 0.134208 -0.237446
v -0.910708 -0.134830 -0.237446
v -0.910686 0.134208 0.228543
v -0.910684 -0.000311 0.264587
v -0.910704 -0.233306 -0.138971
v -0.910690 0.232683 0.130068
v -0.910697 -0.269350 -0.004452
v -0.910697 0.268728 -0.004452
v -0.910690 -0.233306 0.130068
v -0.910704 0.232683 -0.138971
v -0.910686 -0.134831 0.228543
v -0.782674 -0.000311 -0.004458
v -0.910697 -0.000311 -0.004452
vt 0.082172 0.622112
vt 0.072019 0.605076
vt 0.076437 0.600572
vt 0.088245 0.620386
vt 0.007917 0.641718
vt 0.018071 0.658754
vt 0.013652 0.663258
vt 0.001844 0.643445
vt 0.088667 0.643508
vt 0.082634 0.641903
vt 0.007456 0.621926
vt 0.001419 0.620322
vt 0.017676 0.604988
vt 0.013269 0.600473
vt 0.076811 0.663335
vt 0.072399 0.658819
vt 0.034966 0.595278
vt 0.033365 0.589169
vt 0.055129 0.668582
vt 0.056733 0.674686
vt 0.054798 0.595262
vt 0.056412 0.589169
vt 0.035292 0.668569
vt 0.033676 0.674665
vt 0.076086 0.702016
vt 0.076086 0.722023
vt 0.061883 0.718217
vt 0.061883 0.705822
vt 0.015622 0.705822
vt 0.015622 0.718217
vt 0.001419 0.722023
vt 0.001419 0.702016
vt 0.066082 0.739349
vt 0.055685 0.728952
vt 0.021820 0.695087
vt 0.011423 0.684690
vt 0.032555 0.688889
vt 0.028749 0.674686
vt 0.044950 0.735150
vt 0.048756 0.749353
vt 0.044950 0.688889
vt 0.048756 0.674686
vt 0.032555 0.735150
vt 0.028749 0.749353
vt 0.055685 0.695087
vt 0.066082 0.684690
vt 0.021820 0.728952
vt 0.011423 0.739349
vt 0.053856 0.666353
vt 0.035064 0.666353
vt 0.036789 0.659722
vt 0.052136 0.659735
vt 0.070286 0.657203
vt 0.065552 0.652254
vt 0.019380 0.606020
vt 0.035820 0.596875
vt 0.037538 0.603496
vt 0.024119 0.610981
vt 0.080210 0.641174
vt 0.073656 0.639187
vt 0.009401 0.622060
vt 0.015975 0.624074
vt 0.080918 0.622257
vt 0.074449 0.623933
vt 0.008596 0.641043
vt 0.015052 0.639358
vt 0.071112 0.606084
vt 0.066353 0.611012
vt 0.018576 0.657206
vt 0.023338 0.652246
vt 0.054621 0.596883
vt 0.052883 0.603512
vt 0.140749 0.739349
vt 0.123422 0.749353
vt 0.113419 0.712020
vt 0.086089 0.684690
vt 0.103415 0.674686
vt 0.150752 0.722023
vt 0.150752 0.702016
vt 0.086089 0.739349
vt 0.140749 0.684690
vt 0.103415 0.749353
vt 0.123422 0.674686
vt 0.045079 0.632026
vt 0.028146 0.615093
vt 0.038881 0.608895
vt 0.062011 0.648958
vt 0.051276 0.655156
vt 0.051276 0.608895
vt 0.038881 0.655156
vt 0.062011 0.615093
vt 0.028146 0.648958
vt 0.068209 0.625828
vt 0.021948 0.638224
vt 0.068209 0.638224
vt 0.021948 0.625828
vn 0.000040 -0.707109 0.707104
vn -0.000031 0.707107 -0.707107
vn 0.000055 -0.258820 0.965926
vn -0.000050 0.258819 -0.965926
vn -0.000050 -0.258819 -0.965926
vn 0.000055 0.258821 0.965925
vn -0.000031 -0.707106 -0.707107
vn 0.000035 0.707106 0.707108
vn -0.000011 -0.965925 -0.258821
vn 0.000013 0.965925 0.258820
vn 0.000013 -0.965926 0.258820
vn -0.000013 0.965926 -0.258820
vn -1.000000 0.000001 0.000050
vn -1.000000 0.000001 0.000049
vn -1.000000 -0.000001 0.000049
vn -1.000000 -0.000001 0.000050
vn -1.000000 0.000000 0.000046
vn -1.000000 -0.000000 0.000051
vn -0.000050 0.258818 -0.965926
vn -0.000050 -0.258818 -0.965926
vn 0.000049 0.258817 0.965926
vn -0.000036 -0.707103 -0.707111
vn 0.000036 0.707107 0.707107
vn -0.000013 -0.965926 -0.258817
vn 0.000011 0.965925 0.258823
vn 0.000013 -0.965927 0.258815
vn -0.000011 0.965925 -0.258823
vn 0.000036 -0.707107 0.707106
vn -0.000036 0.707107 -0.707107
vn 0.000049 -0.258816 0.965927
vn 1.000000 0.000000 -0.000050
vn 1.000000 0.000002 -0.000047
vn 1.000000 0.000004 -0.000048
vn 1.000000 -0.000001 -0.000048
vn 1.000000 0.000001 -0.000048
vn 1.000000 -0.000002 -0.000047
vn 1.000000 0.000000 -0.000051
vn -1.000000 -0.000002 0.000048
vn -1.000000 0.000005 0.000044
vn -1.000000 -0.000000 0.000052
vn -1.000000 -0.000005 0.000044
vn -1.000000 0.000002 0.000048
s off
f 1/1/1 2/2/1 3/3/1 4/4/1
f 5/5/2 6/6/2 7/7/2 8/8/2
f 1/1/3 4/4/3 9/9/3 10/10/3
f 11/11/4 5/5/4 8/8/4 12/12/4
f 13/13/5 11/11/5 12/12/5 14/14/5
f 9/9/6 15/15/6 16/16/6 10/10/6
f 17/17/7 13/13/7 14/14/7 18/18/7
f 19/19/8 16/16/8 15/15/8 20/20/8
f 21/21/9 17/17/9 18/18/9 22/22/9
f 23/23/10 19/19/10 20/20/10 24/24/10
f 2/2/11 21/21/11 22/22/11 3/3/11
f 6/6/12 23/23/12 24/24/12 7/7/12
f 2/25/13 1/26/13 25/27/13 26/28/13
f 27/29/14 28/30/14 6/31/14 5/32/14
f 25/27/14 1/26/14 10/33/14 29/34/14
f 30/35/14 27/29/14 5/32/14 11/36/14
f 31/37/15 30/35/15 11/36/15 13/38/15
f 32/39/15 29/34/15 10/33/15 16/40/15
f 33/41/15 31/37/15 13/38/15 17/42/15
f 34/43/16 32/39/16 16/40/16 19/44/16
f 35/45/17 33/41/17 17/42/17 21/46/17
f 36/47/18 34/43/18 19/44/18 23/48/18
f 26/28/18 35/45/18 21/46/18 2/25/18
f 28/30/17 36/47/17 23/48/17 6/31/17
f 37/49/19 38/50/19 27/51/19 30/52/19
f 39/53/20 37/49/20 30/52/20 31/54/20
f 40/55/21 41/56/21 29/57/21 32/58/21
f 42/59/22 39/53/22 31/54/22 33/60/22
f 43/61/23 40/55/23 32/58/23 34/62/23
f 44/63/24 42/59/24 33/60/24 35/64/24
f 45/65/25 43/61/25 34/62/25 36/66/25
f 46/67/26 44/63/26 35/64/26 26/68/26
f 47/69/27 45/65/27 36/66/27 28/70/27
f 48/71/28 46/67/28 26/68/28 25/72/28
f 38/50/29 47/69/29 28/70/29 27/51/29
f 48/71/30 25/72/30 29/57/30 41/56/30
f 4/73/31 3/74/31 49/75/31
f 8/76/32 7/77/32 49/75/32
f 49/75/33 9/78/33 4/73/33
f 12/25/34 8/76/34 49/75/34
f 14/26/35 12/25/35 49/75/35
f 15/79/35 9/78/35 49/75/35
f 18/80/36 14/26/36 49/75/36
f 20/81/36 15/79/36 49/75/36
f 22/82/37 18/80/37 49/75/37
f 24/83/37 20/81/37 49/75/37
f 3/74/37 22/82/37 49/75/37
f 7/77/37 24/83/37 49/75/37
f 50/84/38 37/85/38 39/86/38
f 50/84/38 41/87/38 40/88/38
f 50/84/39 39/86/39 42/89/39
f 50/84/39 40/88/39 43/90/39
f 50/84/40 42/89/40 44/91/40
f 50/84/40 43/90/40 45/92/40
f 50/84/40 44/91/40 46/93/40
f 50/84/40 45/92/40 47/94/40
f 50/84/41 46/93/41 48/95/41
f 50/84/41 47/94/41 38/96/41
f 50/84/42 48/95/42 41/87/42
f 50/84/42 38/96/42 37/85/42
o Mesh_Circle
v 1.003559 -0.220917 -0.380515
v 1.003559 -0.379858 -0.221574
v 0.934314 -0.379858 -0.221574
v 0.934314 -0.220917 -0.380515
v 1.003559 0.213320 0.371605
v 1.003559 0.372262 0.212663
v 0.934314 0.372262 0.212663
v 0.934314 0.213320 0.371605
v 0.934314 -0.003798 -0.438692
v 1.003559 -0.003798 -0.438692
v 1.003559 -0.003798 0.429782
v 0.934314 -0.003798 0.429782
v 1.003559 -0.220916 0.371605
v 0.934314 -0.220916 0.371605
v 0.934314 0.213320 -0.380516
v 1.003559 0.213320 -0.380516
v 1.003559 -0.379858 0.212663
v 0.934314 -0.379858 0.212663
v 1.003559 0.372262 -0.221574
v 0.934314 0.372262 -0.221574
v 1.003559 -0.438035 -0.004455
v 0.934314 -0.438035 -0.004455
v 1.003559 0.430439 -0.004455
v 0.934314 0.430439 -0.004455
v 1.003559 -0.138318 -0.237450
v 1.003559 -0.236793 -0.138975
v 1.003559 0.130721 0.228539
v 1.003559 0.229196 0.130064
v 1.003559 -0.003798 -0.273494
v 1.003559 -0.003798 0.264584
v 1.003559 -0.138317 0.228539
v 1.003559 0.130721 -0.237450
v 1.003559 -0.236793 0.130064
v 1.003559 0.229196 -0.138975
v 1.003559 -0.272837 -0.004455
v 1.003559 0.265241 -0.004455
v 1.062337 -0.003798 0.264584
v 1.062337 0.130721 0.228539
v 1.062337 -0.138317 0.228539
v 1.062337 0.130721 -0.237450
v 1.062337 -0.003798 -0.273494
v 1.062337 -0.236793 0.130064
v 1.062337 0.229196 -0.138975
v 1.062337 -0.272837 -0.004455
v 1.062337 0.265241 -0.004455
v 1.062337 -0.236793 -0.138975
v 1.062337 0.229196 0.130064
v 1.062337 -0.138318 -0.237450
v 0.934314 -0.003798 -0.004455
v 1.062337 -0.003798 -0.004455
vt 0.082172 0.622112
vt 0.072019 0.605076
vt 0.076437 0.600572
vt 0.088245 0.620386
vt 0.007917 0.641718
vt 0.018071 0.658754
vt 0.013652 0.663258
vt 0.001844 0.643445
vt 0.088667 0.643508
vt 0.082634 0.641903
vt 0.007456 0.621926
vt 0.001419 0.620322
vt 0.017676 0.604988
vt 0.013269 0.600473
vt 0.076811 0.663335
vt 0.072399 0.658819
vt 0.034966 0.595278
vt 0.033365 0.589169
vt 0.055129 0.668582
vt 0.056733 0.674686
vt 0.054798 0.595262
vt 0.056412 0.589169
vt 0.035292 0.668569
vt 0.033676 0.674665
vt 0.076086 0.702016
vt 0.076086 0.722023
vt 0.061883 0.718217
vt 0.061883 0.705822
vt 0.015622 0.705822
vt 0.015622 0.718217
vt 0.001419 0.722023
vt 0.001419 0.702016
vt 0.066082 0.739349
vt 0.055685 0.728952
vt 0.021820 0.695087
vt 0.011423 0.684690
vt 0.032555 0.688889
vt 0.028749 0.674686
vt 0.044950 0.735150
vt 0.048756 0.749353
vt 0.044950 0.688889
vt 0.048756 0.674686
vt 0.032555 0.735150
vt 0.028749 0.749353
vt 0.055685 0.695087
vt 0.066082 0.684690
vt 0.021820 0.728952
vt 0.011423 0.739349
vt 0.053856 0.666353
vt 0.035064 0.666353
vt 0.036789 0.659722
vt 0.052136 0.659735
vt 0.070286 0.657203
vt 0.065552 0.652254
vt 0.019380 0.606020
vt 0.035820 0.596875
vt 0.037538 0.603496
vt 0.024119 0.610981
vt 0.080210 0.641174
vt 0.073656 0.639187
vt 0.009401 0.622060
vt 0.015975 0.624074
vt 0.080918 0.622257
vt 0.074449 0.623933
vt 0.008596 0.641043
vt 0.015052 0.639358
vt 0.071112 0.606084
vt 0.066353 0.611012
vt 0.018576 0.657206
vt 0.023338 0.652246
vt 0.054621 0.596883
vt 0.052883 0.603512
vt 0.140749 0.739349
vt 0.123422 0.749353
vt 0.113419 0.712020
vt 0.086089 0.684690
vt 0.103415 0.674686
vt 0.150752 0.722023
vt 0.150752 0.702016
vt 0.086089 0.739349
vt 0.140749 0.684690
vt 0.103415 0.749353
vt 0.123422 0.674686
vt 0.045079 0.632026
vt 0.028146 0.615093
vt 0.038881 0.608895
vt 0.062011 0.648958
vt 0.051276 0.655156
vt 0.051276 0.608895
vt 0.038881 0.655156
vt 0.062011 0.615093
vt 0.028146 0.648958
vt 0.068209 0.625828
vt 0.021948 0.638224
vt 0.068209 0.638224
vt 0.021948 0.625828
vn 0.000000 -0.707107 -0.707107
vn 0.000000 0.707107 0.707107
vn 0.000000 -0.258820 -0.965926
vn 0.000000 0.258821 0.965925
vn 0.000000 -0.258821 0.965925
vn 0.000000 0.258817 -0.965927
vn 0.000000 -0.707107 0.707107
vn 0.000000 0.707107 -0.707106
vn 0.000000 -0.965925 0.258820
vn 0.000000 0.965926 -0.258819
vn 0.000000 -0.965926 -0.258820
vn 0.000000 0.965925 0.258821
vn 1.000000 0.000000 0.000000
vn 0.000000 0.258824 0.965925
vn 0.000000 -0.258824 0.965925
vn 0.000000 0.258819 -0.965926
vn 0.000000 -0.707104 0.707109
vn 0.000000 -0.965926 0.258817
vn 0.000000 0.965925 -0.258822
vn 0.000000 -0.965927 -0.258816
vn 0.000000 0.965924 0.258824
vn 0.000000 -0.258817 -0.965926
vn -1.000000 0.000000 -0.000000
s off
f 51/97/43 52/98/43 53/99/43 54/100/43
f 55/101/44 56/102/44 57/103/44 58/104/44
f 51/97/45 54/100/45 59/105/45 60/106/45
f 61/107/46 55/101/46 58/104/46 62/108/46
f 63/109/47 61/107/47 62/108/47 64/110/47
f 59/105/48 65/111/48 66/112/48 60/106/48
f 67/113/49 63/109/49 64/110/49 68/114/49
f 69/115/50 66/112/50 65/111/50 70/116/50
f 71/117/51 67/113/51 68/114/51 72/118/51
f 73/119/52 69/115/52 70/116/52 74/120/52
f 52/98/53 71/117/53 72/118/53 53/99/53
f 56/102/54 73/119/54 74/120/54 57/103/54
f 52/121/55 51/122/55 75/123/55 76/124/55
f 77/125/55 78/126/55 56/127/55 55/128/55
f 75/123/55 51/122/55 60/129/55 79/130/55
f 80/131/55 77/125/55 55/128/55 61/132/55
f 81/133/55 80/131/55 61/132/55 63/134/55
f 82/135/55 79/130/55 60/129/55 66/136/55
f 83/137/55 81/133/55 63/134/55 67/138/55
f 84/139/55 82/135/55 66/136/55 69/140/55
f 85/141/55 83/137/55 67/138/55 71/142/55
f 86/143/55 84/139/55 69/140/55 73/144/55
f 76/124/55 85/141/55 71/142/55 52/121/55
f 78/126/55 86/143/55 73/144/55 56/127/55
f 87/145/56 88/146/56 77/147/56 80/148/56
f 89/149/57 87/145/57 80/148/57 81/150/57
f 90/151/58 91/152/58 79/153/58 82/154/58
f 92/155/59 89/149/59 81/150/59 83/156/59
f 93/157/50 90/151/50 82/154/50 84/158/50
f 94/159/60 92/155/60 83/156/60 85/160/60
f 95/161/61 93/157/61 84/158/61 86/162/61
f 96/163/62 94/159/62 85/160/62 76/164/62
f 97/165/63 95/161/63 86/162/63 78/166/63
f 98/167/43 96/163/43 76/164/43 75/168/43
f 88/146/44 97/165/44 78/166/44 77/147/44
f 98/167/64 75/168/64 79/153/64 91/152/64
f 54/169/65 53/170/65 99/171/65
f 58/172/65 57/173/65 99/171/65
f 99/171/65 59/174/65 54/169/65
f 62/121/65 58/172/65 99/171/65
f 64/122/65 62/121/65 99/171/65
f 65/175/65 59/174/65 99/171/65
f 68/176/65 64/122/65 99/171/65
f 70/177/65 65/175/65 99/171/65
f 72/178/65 68/176/65 99/171/65
f 74/179/65 70/177/65 99/171/65
f 53/170/65 72/178/65 99/171/65
f 57/173/65 74/179/65 99/171/65
f 100/180/55 87/181/55 89/182/55
f 100/180/55 91/183/55 90/184/55
f 100/180/55 89/182/55 92/185/55
f 100/180/55 90/184/55 93/186/55
f 100/180/55 92/185/55 94/187/55
f 100/180/55 93/186/55 95/188/55
f 100/180/55 94/187/55 96/189/55
f 100/180/55 95/188/55 97/190/55
f 100/180/55 96/189/55 98/191/55
f 100/180/55 97/190/55 88/192/55
f 100/180/55 98/191/55 91/183/55
f 100/180/55 88/192/55 87/181/55
